<?xml version="1.0" encoding="UTF-8"?>
<svg xmlns="http://www.w3.org/2000/svg" viewBox="0 0 512 512" role="img" aria-label="ELITE TCF CANADA">
  <defs>
    <filter id="inner-shadow" x="-20%" y="-20%" width="140%" height="140%">
      <feDropShadow dx="0" dy="6" stdDeviation="8" flood-color="#000000" flood-opacity="0.18"/>
    </filter>
    <filter id="ring-shadow" x="-10%" y="-10%" width="120%" height="120%">
      <feDropShadow dx="-4" dy="2" stdDeviation="3" flood-color="#000000" flood-opacity="0.12"/>
    </filter>
  </defs>
  <circle cx="256" cy="256" r="256" fill="#d30d0d"/>
  <circle cx="256" cy="256" r="206" fill="#ffffff" filter="url(#ring-shadow)"/>
  <circle cx="256" cy="248" r="162" fill="#ffffff" filter="url(#inner-shadow)"/>
  <g transform="translate(256 248) scale(1.45)" fill="#d30d0d">
    <path d="M0 -52 L78 -22 L0 8 L-78 -22 Z"/>
    <path d="M-46 2 C-46 2 -18 28 0 28 C18 28 46 2 46 2 L46 34 C46 34 18 52 0 52 C-18 52 -46 34 -46 34 Z"/>
    <path d="M-46 8 L-38 8 L-38 30 L-46 30 Z" fill="#ffffff"/>
  </g>
</svg>
